<svg xmlns="http://www.w3.org/2000/svg" viewBox="0 0 800 520"><defs><linearGradient id="g" x1="0" x2="1"><stop stop-color="#fb7185"/><stop offset="1" stop-color="#c084fc"/></linearGradient></defs><rect width="800" height="520" fill="url(#g)"/><circle cx="130" cy="120" r="55" fill="#fde68a"/><path d="M285 425l115-240 115 240z" fill="#fdf2f8" opacity=".92"/><path d="M325 190l75-90 75 90-30-8-20 35-25-42-25 42-20-35z" fill="#fde047"/><circle cx="400" cy="230" r="48" fill="#fed7aa"/><path d="M350 225q50-90 100 0v-45h-100z" fill="#7c2d12"/><circle cx="382" cy="230" r="5"/><circle cx="418" cy="230" r="5"/><path d="M382 255q18 16 36 0" fill="none" stroke="#be185d" stroke-width="5"/><g fill="#fff" opacity=".7"><circle cx="650" cy="90" r="12"/><circle cx="700" cy="160" r="8"/><circle cx="610" cy="210" r="10"/></g></svg>